<svg width="350" height="550" viewBox="0 0 350 550" fill="none" xmlns="http://www.w3.org/2000/svg">
<rect width="350" height="550" fill="#101010"/>
<path d="M280 50C291.046 50 300 58.9543 300 70V80C300 81.6922 299.788 83.3349 299.393 84.9043C298.507 89.7136 296.207 94.3139 292.487 98.0332L167.812 222.708C165.015 225.871 167.216 230.96 171.524 231H211C222.046 231 231 239.954 231 251V261C231 272.046 222.046 281 211 281H167.436C163.364 281 161.014 285.598 163.362 288.895L290.761 461.801C291.114 462.28 291.441 462.772 291.746 463.271L295.316 468.082C305.109 481.279 295.689 500 279.255 500H267.571C261.235 500 255.274 496.998 251.502 491.907L250.336 490.333C249.787 489.592 249.299 488.827 248.867 488.044L129.474 326.002V326.003L109.025 298.25C106.162 294.364 100 296.389 100 301.216V480C100 491.046 91.0457 500 80 500H70C58.9543 500 50 491.046 50 480V70C50 58.9543 58.9543 50 70 50H280ZM104.877 100C102.484 100 100.485 101.691 100 103.948V208.797C100.787 212.512 105.53 214.137 108.405 211.25L210.695 108.553C213.839 105.397 211.612 100 207.167 100H104.877Z" fill="#D9D9D9"/>
</svg>
