<svg width="350" height="550" viewBox="0 0 350 550" fill="none" xmlns="http://www.w3.org/2000/svg">
<rect width="350" height="550" fill="#D9D9D9"/>
<path d="M280 50C291.046 50 300 58.9543 300 70V80C300 81.6922 299.788 83.3349 299.393 84.9043C298.507 89.7136 296.207 94.3139 292.487 98.0332L167.812 222.708C165.015 225.871 167.216 230.96 171.524 231H211C222.046 231 231 239.954 231 251V261C231 272.046 222.046 281 211 281H167.436C163.364 281 161.014 285.598 163.362 288.895L290.761 461.801C291.114 462.28 291.441 462.772 291.746 463.271L295.316 468.082C305.109 481.279 295.689 500 279.255 500H267.571C261.235 500 255.274 496.998 251.502 491.907L250.336 490.333C249.787 489.592 249.299 488.827 248.867 488.044L129.474 326.002V326.003L109.025 298.25C106.162 294.364 100 296.389 100 301.216V480C100 491.046 91.0457 500 80 500H70C58.9543 500 50 491.046 50 480V70C50 58.9543 58.9543 50 70 50H280ZM104.877 100C102.484 100 100.485 101.691 100 103.948V208.797C100.787 212.512 105.53 214.137 108.405 211.25L210.695 108.553C213.839 105.397 211.612 100 207.167 100H104.877Z" fill="#D9D9D9"/>
<path d="M300 70H310V70H300ZM299.393 84.9043L289.696 82.4597L289.617 82.7744L289.558 83.0935L299.393 84.9043ZM292.487 98.0332L299.558 105.104L299.558 105.104L292.487 98.0332ZM167.812 222.708L160.74 215.637L160.523 215.854L160.32 216.084L167.812 222.708ZM171.524 231L171.432 241L171.478 241H171.524V231ZM211 231V221V221V231ZM231 251H241V251H231ZM211 281V291V291V281ZM167.436 281V271H167.435L167.436 281ZM163.362 288.895L155.218 294.697L155.264 294.762L155.312 294.826L163.362 288.895ZM290.761 461.801L298.812 455.869L298.811 455.869L290.761 461.801ZM291.746 463.271L283.21 468.48L283.446 468.867L283.716 469.231L291.746 463.271ZM295.316 468.082L303.347 462.123L303.346 462.122L295.316 468.082ZM279.255 500V510H279.255L279.255 500ZM251.502 491.907L243.466 497.859L243.467 497.861L251.502 491.907ZM250.336 490.333L258.372 484.381L258.371 484.38L250.336 490.333ZM248.867 488.044L257.625 483.217L257.308 482.641L256.918 482.112L248.867 488.044ZM129.474 326.002L137.524 320.07L119.474 295.572V326.002H129.474ZM129.474 326.003L121.423 331.935L139.474 356.434V326.003H129.474ZM109.025 298.25L100.975 304.182L100.975 304.182L109.025 298.25ZM80 500V510V510V500ZM50 480H40V480H50ZM70 50V40V40V50ZM104.877 100V90V90V100ZM100 103.948L90.2234 101.846L90 102.885V103.948H100ZM100 208.797H90V209.845L90.2172 210.87L100 208.797ZM108.405 211.25L115.49 218.307V218.307L108.405 211.25ZM210.695 108.553L217.78 115.61L217.781 115.609L210.695 108.553ZM207.167 100L207.167 90H207.167V100ZM280 50V60C285.523 60 290 64.4772 290 70H300H310C310 53.4315 296.569 40 280 40V50ZM300 70H290V80H300H310V70H300ZM300 80H290C290 80.8546 289.893 81.6765 289.696 82.4597L299.393 84.9043L309.089 87.3489C309.683 84.9933 310 82.5298 310 80H300ZM299.393 84.9043L289.558 83.0935C289.027 85.9766 287.655 88.7229 285.416 90.9621L292.487 98.0332L299.558 105.104C304.758 99.9048 307.987 93.4506 309.227 86.7151L299.393 84.9043ZM292.487 98.0332L285.416 90.9621L160.74 215.637L167.812 222.708L174.883 229.779L299.558 105.104L292.487 98.0332ZM167.812 222.708L160.32 216.084C151.903 225.605 158.465 240.88 171.432 241L171.524 231L171.617 221C175.967 221.041 178.127 226.137 175.303 229.332L167.812 222.708ZM171.524 231V241H211V231V221H171.524V231ZM211 231V241C216.523 241 221 245.477 221 251H231H241C241 234.431 227.569 221 211 221V231ZM231 251H221V261H231H241V251H231ZM231 261H221C221 266.523 216.523 271 211 271V281V291C227.569 291 241 277.569 241 261H231ZM211 281V271H167.436V281V291H211V281ZM167.436 281L167.435 271C155.209 271.001 148.169 284.802 155.218 294.697L163.362 288.895L171.507 283.092C173.859 286.394 171.519 291 167.436 291L167.436 281ZM163.362 288.895L155.312 294.826L282.71 467.733L290.761 461.801L298.811 455.869L171.413 282.963L163.362 288.895ZM290.761 461.801L282.71 467.732C282.876 467.958 283.043 468.206 283.21 468.48L291.746 463.271L300.283 458.063C299.84 457.337 299.352 456.602 298.812 455.869L290.761 461.801ZM291.746 463.271L283.716 469.231L287.286 474.042L295.316 468.082L303.346 462.122L299.776 457.312L291.746 463.271ZM295.316 468.082L287.286 474.041C292.182 480.639 287.472 490 279.255 490L279.255 500L279.255 510C303.905 510 318.036 481.919 303.347 462.123L295.316 468.082ZM279.255 500V490H267.571V500V510H279.255V500ZM267.571 500V490C264.403 490 261.423 488.499 259.537 485.954L251.502 491.907L243.467 497.861C249.126 505.497 258.068 510 267.571 510V500ZM251.502 491.907L259.538 485.955L258.372 484.381L250.336 490.333L242.3 496.285L243.466 497.859L251.502 491.907ZM250.336 490.333L258.371 484.38C258.095 484.007 257.847 483.619 257.625 483.217L248.867 488.044L240.109 492.871C240.751 494.034 241.479 495.177 242.301 496.286L250.336 490.333ZM248.867 488.044L256.918 482.112L137.524 320.07L129.474 326.002L121.423 331.934L240.816 493.976L248.867 488.044ZM129.474 326.002H119.474V326.003H129.474H139.474V326.002H129.474ZM129.474 326.003L137.524 320.071L117.076 292.318L109.025 298.25L100.975 304.182L121.423 331.935L129.474 326.003ZM109.025 298.25L117.076 292.318C108.487 280.661 90 286.736 90 301.216H100H110C110 306.043 103.838 308.067 100.975 304.182L109.025 298.25ZM100 301.216H90V480H100H110V301.216H100ZM100 480H90C90 485.523 85.5228 490 80 490V500V510C96.5685 510 110 496.569 110 480H100ZM80 500V490H70V500V510H80V500ZM70 500V490C64.4772 490 60 485.523 60 480H50H40C40 496.569 53.4315 510 70 510V500ZM50 480H60V70H50H40V480H50ZM50 70H60C60 64.4772 64.4772 60 70 60V50V40C53.4315 40 40 53.4315 40 70H50ZM70 50V60H280V50V40H70V50ZM104.877 100V90C97.6444 90 91.6724 95.1071 90.2234 101.846L100 103.948L109.777 106.05C109.298 108.276 107.324 110 104.877 110V100ZM100 103.948H90V208.797H100H110V103.948H100ZM100 208.797L90.2172 210.87C92.5725 221.986 106.743 227.089 115.49 218.307L108.405 211.25L101.32 204.193C104.316 201.185 109.002 203.038 109.783 206.724L100 208.797ZM108.405 211.25L115.49 218.307L217.78 115.61L210.695 108.553L203.61 101.496L101.32 204.193L108.405 211.25ZM210.695 108.553L217.781 115.609C227.144 106.208 220.596 90.0006 207.167 90L207.167 100L207.167 110C202.628 110 200.533 104.586 203.61 101.496L210.695 108.553ZM207.167 100V90H104.877V100V110H207.167V100Z" fill="#101010"/>
</svg>
