<svg width="550" height="550" viewBox="0 0 550 550" fill="none" xmlns="http://www.w3.org/2000/svg">
<rect width="550" height="550" fill="#D9D9D9"/>
<path d="M380 50C391.046 50 400 58.9543 400 70V80C400 81.6922 399.788 83.3349 399.393 84.9043C398.507 89.7136 396.207 94.3139 392.487 98.0332L267.812 222.708C265.015 225.871 267.216 230.96 271.524 231H311C322.046 231 331 239.954 331 251V261C331 272.046 322.046 281 311 281H267.436C263.364 281 261.014 285.598 263.362 288.895L390.761 461.801C391.114 462.28 391.441 462.772 391.746 463.271L395.316 468.082C405.109 481.279 395.689 500 379.255 500H367.571C361.235 500 355.274 496.998 351.502 491.907L350.336 490.333C349.787 489.592 349.299 488.827 348.867 488.044L229.474 326.002V326.003L209.025 298.25C206.162 294.364 200 296.389 200 301.216V480C200 491.046 191.046 500 180 500H170C158.954 500 150 491.046 150 480V70C150 58.9543 158.954 50 170 50H380ZM204.877 100C202.484 100 200.485 101.691 200 103.948V208.797C200.787 212.512 205.53 214.137 208.405 211.25L310.695 108.553C313.839 105.397 311.612 100 307.167 100H204.877Z" fill="#101010"/>
</svg>
